<?xml version="1.0" encoding="utf-8"?>
<!-- Generator: Adobe Illustrator 19.1.0, SVG Export Plug-In . SVG Version: 6.00 Build 0)  -->
<svg version="1.1" id="Layer_1" xmlns="http://www.w3.org/2000/svg" xmlns:xlink="http://www.w3.org/1999/xlink" x="0px" y="0px"
	 viewBox="0 0 216 216" style="enable-background:new 0 0 216 216;" xml:space="preserve">
<style type="text/css">
	.st0{fill:#406CAB;}
	.st1{fill:#547FC0;}
	.st2{fill:#FFFFFF;}
	.st3{fill:#414142;}
	.st4{fill:#A6C2E5;}
</style>
<g>
	<polygon class="st0" points="151.7,72.8 65.8,72.8 108.7,104.6 	"/>
	<polygon class="st1" points="108.7,42.3 151.7,73 65.8,73 	"/>
	<path class="st2" d="M127.9,71.6c-2.7-3.8-6.5-6.8-11-8.5c-2.6-1-5.3-1.5-8.2-1.5c-13,0-23.5,10.5-23.5,23.5c0,5.6,2,10.8,5.3,14.8
		c2.3,2.8,5.2,5.1,8.5,6.6c3,1.3,6.3,2.1,9.7,2.1c13,0,23.5-10.5,23.5-23.5C132.3,80.1,130.7,75.4,127.9,71.6z"/>
	<circle class="st3" cx="108.7" cy="85.2" r="10.7"/>
	<circle class="st2" cx="112.8" cy="81.3" r="2.8"/>
	<polygon class="st1" points="65.8,72.8 65.8,127.6 108.7,100.2 	"/>
	<polygon class="st4" points="108.7,100.2 65.8,127.6 151.7,127.6 151.7,72.8 	"/>
	<line class="st1" x1="60.5" y1="90" x2="24.7" y2="90"/>
	<path class="st1" d="M60.5,91H24.7c-0.6,0-1.1-0.5-1.1-1.1s0.5-1.1,1.1-1.1h35.8c0.6,0,1.1,0.5,1.1,1.1S61.1,91,60.5,91z"/>
	<line class="st1" x1="60.5" y1="102.6" x2="32.7" y2="102.6"/>
	<path class="st1" d="M60.5,103.6H32.7c-0.6,0-1.1-0.5-1.1-1.1s0.5-1.1,1.1-1.1h27.9c0.6,0,1.1,0.5,1.1,1.1S61.1,103.6,60.5,103.6z"
		/>
	<line class="st1" x1="60.5" y1="115.2" x2="42.6" y2="115.2"/>
	<path class="st1" d="M60.5,116.2H42.6c-0.6,0-1.1-0.5-1.1-1.1c0-0.6,0.5-1.1,1.1-1.1h17.9c0.6,0,1.1,0.5,1.1,1.1
		C61.6,115.7,61.1,116.2,60.5,116.2z"/>
	<path class="st2" d="M46.7,159.2C46.7,159.2,46.6,159.2,46.7,159.2c-2.5,2.5-5.5,3.8-9,3.8s-6.4-1.2-8.9-3.7
		c-2.5-2.5-3.7-5.4-3.7-8.9c0-3.5,1.2-6.4,3.7-8.9c2.5-2.5,5.4-3.7,8.9-3.7s6.4,1.2,8.9,3.7c2.5,2.5,3.7,5.4,3.7,8.9V163
		c0,2.6-0.9,4.9-2.8,6.8c-2.6,2.6-5.8,4-9.6,4c-3.7,0-6.9-1.3-9.5-4c-1-1-1.8-2-2.4-3.1c-0.2-0.3-0.3-0.6-0.3-0.9
		c0-0.5,0.2-0.9,0.5-1.3c0.4-0.4,0.8-0.5,1.3-0.5c0.5,0,0.9,0.2,1.3,0.5c0.1,0.2,0.3,0.3,0.4,0.5c0.4,0.8,1,1.6,1.7,2.3
		c1.9,1.9,4.3,2.9,7,2.9c2.7,0,5.1-1,7-2.9c1.2-1.4,1.8-2.9,1.8-4.3V159.2z M37.7,141.4c-2.5,0-4.6,0.9-6.4,2.6
		c-1.8,1.8-2.6,3.9-2.6,6.4c0,2.5,0.9,4.6,2.6,6.4c1.8,1.8,3.9,2.6,6.4,2.6c2.5,0,4.6-0.9,6.4-2.6c1.8-1.8,2.6-3.9,2.6-6.4
		c0-2.5-0.9-4.6-2.6-6.4C42.3,142.3,40.2,141.4,37.7,141.4z"/>
	<path class="st2" d="M73.4,156.8c0.5,0,0.9,0.2,1.3,0.5c0.4,0.4,0.5,0.8,0.5,1.3s-0.2,0.9-0.5,1.3c-2.3,2-5.1,3-8.2,3
		c-3.5,0-6.4-1.2-8.9-3.7c-2.5-2.5-3.7-5.4-3.7-8.9c0-3.5,1.2-6.4,3.7-8.9c2.5-2.5,5.4-3.7,8.9-3.7s6.4,1.2,8.9,3.7
		c2.5,2.5,3.7,5.4,3.7,8.9c0,0.5-0.2,0.9-0.5,1.3c-0.4,0.4-0.8,0.5-1.3,0.5H57.6c0.3,1.7,1.2,3.2,2.5,4.6c1.8,1.8,3.9,2.6,6.4,2.6
		c2.2,0,4.2-0.7,5.8-2.1C72.6,157,73,156.8,73.4,156.8z M75.3,148.6c-0.3-1.7-1.2-3.2-2.5-4.6c-1.8-1.8-3.9-2.6-6.4-2.6
		c-2.5,0-4.6,0.9-6.4,2.6c-1.3,1.3-2.1,2.8-2.5,4.6H75.3z"/>
	<path class="st4" d="M134.8,150.4c0,3.5-1.2,6.4-3.7,8.9c-2.5,2.5-5.4,3.7-8.9,3.7s-6.4-1.2-8.9-3.7c-2.5-2.5-3.7-5.4-3.7-8.9
		c0-3.5,1.2-6.4,3.7-8.9c2.5-2.5,5.4-3.7,8.9-3.7s6.4,1.2,8.9,3.7C133.6,143.9,134.8,146.9,134.8,150.4z M122.2,141.4
		c-2.5,0-4.6,0.9-6.4,2.6c-1.8,1.8-2.6,3.9-2.6,6.4c0,2.5,0.9,4.6,2.6,6.4s3.9,2.6,6.4,2.6s4.6-0.9,6.4-2.6c1.8-1.8,2.6-3.9,2.6-6.4
		c0-2.5-0.9-4.6-2.6-6.4C126.8,142.3,124.7,141.4,122.2,141.4z"/>
	<path class="st4" d="M163.6,150.4c0,3.5-1.2,6.4-3.7,8.9c-2.5,2.5-5.4,3.7-8.9,3.7c-3.5,0-6.4-1.2-8.9-3.7
		c-2.5-2.5-3.7-5.4-3.7-8.9c0-3.5,1.2-6.4,3.7-8.9c2.5-2.5,5.4-3.7,8.9-3.7c3.5,0,6.4,1.2,8.9,3.7
		C162.3,143.9,163.6,146.9,163.6,150.4z M151,141.4c-2.5,0-4.6,0.9-6.4,2.6c-1.8,1.8-2.6,3.9-2.6,6.4c0,2.5,0.9,4.6,2.6,6.4
		s3.9,2.6,6.4,2.6s4.6-0.9,6.4-2.6s2.6-3.9,2.6-6.4c0-2.5-0.9-4.6-2.6-6.4C155.6,142.3,153.5,141.4,151,141.4z"/>
	<path class="st2" d="M188.7,159.2C188.7,159.2,188.7,159.2,188.7,159.2c-2.5,2.5-5.5,3.8-9,3.8c-3.5,0-6.4-1.2-8.9-3.7
		c-2.5-2.5-3.7-5.4-3.7-8.9c0-3.5,1.2-6.4,3.7-8.9c2.5-2.5,5.4-3.7,8.9-3.7c3.5,0,6.4,1.2,8.9,3.7c2.5,2.5,3.7,5.4,3.7,8.9V163
		c0,2.6-0.9,4.9-2.8,6.8c-2.6,2.6-5.8,4-9.6,4s-6.9-1.3-9.5-4c-1-1-1.8-2-2.4-3.1c-0.2-0.3-0.3-0.6-0.3-0.9c0-0.5,0.2-0.9,0.5-1.3
		c0.4-0.4,0.8-0.5,1.3-0.5s0.9,0.2,1.3,0.5c0.1,0.2,0.3,0.3,0.4,0.5c0.4,0.8,1,1.6,1.7,2.3c1.9,1.9,4.3,2.9,7,2.9c2.7,0,5.1-1,7-2.9
		c1.2-1.4,1.8-2.9,1.8-4.3V159.2z M179.8,141.4c-2.5,0-4.6,0.9-6.4,2.6c-1.8,1.8-2.6,3.9-2.6,6.4c0,2.5,0.9,4.6,2.6,6.4
		s3.9,2.6,6.4,2.6c2.5,0,4.6-0.9,6.4-2.6s2.6-3.9,2.6-6.4c0-2.5-0.9-4.6-2.6-6.4C184.4,142.3,182.2,141.4,179.8,141.4z"/>
	<path class="st2" d="M102.6,141.2c-2.3-2.3-5-3.4-8.3-3.4s-6,1.1-8.3,3.4c-2.3,2.3-3.4,5-3.4,8.3v11.7c0,0.5,0.2,0.9,0.5,1.3
		c0.4,0.4,0.8,0.5,1.3,0.5c0.5,0,0.9-0.2,1.3-0.5c0.4-0.4,0.5-0.8,0.5-1.3v-11.7c0-2.2,0.8-4.1,2.4-5.7c1.6-1.6,3.5-2.4,5.7-2.4
		c2.2,0,4.1,0.8,5.7,2.4c1.6,1.6,2.4,3.5,2.4,5.7v11.7c0,0.5,0.2,0.9,0.5,1.3c0.4,0.4,0.8,0.5,1.3,0.5c0.5,0,0.9-0.2,1.3-0.5
		c0.4-0.4,0.5-0.8,0.5-1.3v-11.7C106,146.2,104.9,143.5,102.6,141.2z"/>
</g>
</svg>
