<?xml version="1.0" encoding="utf-8"?>
<!-- Generator: Adobe Illustrator 19.1.0, SVG Export Plug-In . SVG Version: 6.00 Build 0)  -->
<svg version="1.1" id="Layer_1" xmlns="http://www.w3.org/2000/svg" xmlns:xlink="http://www.w3.org/1999/xlink" x="0px" y="0px"
	 viewBox="0 0 100 100" style="enable-background:new 0 0 100 100;" xml:space="preserve">
<style type="text/css">
	.st0{fill:#FFFFFF;}
	.st1{fill:#406DAC;}
	.st2{fill:#5480C1;}
	.st3{fill:none;}
	.st4{fill:#A6C2E5;}
	.st5{fill:#424243;}
</style>
<rect class="st0" width="100" height="100"/>
<g>
	<g>
		<polygon class="st1" points="70.1,32.8 30.6,32.8 50.4,47.4 		"/>
		<polygon class="st2" points="50.4,18.8 70.1,32.9 30.6,32.9 		"/>
	</g>
	<line class="st3" x1="28.3" y1="40.7" x2="11.8" y2="40.7"/>
	<path class="st2" d="M28.3,41.2H11.8c-0.3,0-0.5-0.2-0.5-0.5c0-0.3,0.2-0.5,0.5-0.5h16.4c0.3,0,0.5,0.2,0.5,0.5
		C28.8,41,28.5,41.2,28.3,41.2z"/>
	<line class="st3" x1="28.3" y1="46.5" x2="15.5" y2="46.5"/>
	<path class="st2" d="M28.3,47H15.5c-0.3,0-0.5-0.2-0.5-0.5c0-0.3,0.2-0.5,0.5-0.5h12.8c0.3,0,0.5,0.2,0.5,0.5
		C28.8,46.7,28.5,47,28.3,47z"/>
	<line class="st3" x1="28.3" y1="52.3" x2="20" y2="52.3"/>
	<path class="st2" d="M28.3,52.7H20c-0.3,0-0.5-0.2-0.5-0.5c0-0.3,0.2-0.5,0.5-0.5h8.2c0.3,0,0.5,0.2,0.5,0.5
		C28.8,52.5,28.5,52.7,28.3,52.7z"/>
	<path class="st2" d="M21.9,72.4C21.9,72.5,21.9,72.5,21.9,72.4c-1.2,1.2-2.5,1.7-4.1,1.7s-2.9-0.6-4.1-1.7C12.6,71.4,12,70,12,68.4
		s0.6-2.9,1.7-4.1c1.1-1.1,2.5-1.7,4.1-1.7c1.6,0,2.9,0.6,4.1,1.7c1.1,1.1,1.7,2.5,1.7,4.1v5.8c0,1.2-0.4,2.2-1.3,3.1
		c-1.2,1.2-2.7,1.8-4.4,1.8s-3.2-0.6-4.4-1.8c-0.5-0.4-0.8-0.9-1.1-1.5c-0.1-0.1-0.1-0.3-0.1-0.4c0-0.2,0.1-0.4,0.2-0.6
		c0.1-0.1,0.4-0.2,0.6-0.2c0.2,0,0.4,0.1,0.6,0.2c0,0.1,0.1,0.1,0.2,0.2c0.2,0.4,0.5,0.7,0.8,1c0.9,0.9,2,1.3,3.2,1.3
		s2.3-0.4,3.2-1.3c0.6-0.7,0.8-1.3,0.8-2L21.9,72.4L21.9,72.4z M17.8,64.3c-1.1,0-2.1,0.4-2.9,1.2c-0.8,0.8-1.2,1.8-1.2,2.9
		s0.4,2.1,1.2,2.9c0.8,0.8,1.8,1.2,2.9,1.2s2.1-0.4,2.9-1.2c0.8-0.8,1.2-1.8,1.2-2.9s-0.4-2.1-1.2-2.9
		C19.9,64.7,18.9,64.3,17.8,64.3z"/>
	<path class="st2" d="M34.2,71.4c0.2,0,0.4,0.1,0.6,0.2s0.2,0.4,0.2,0.6s-0.1,0.4-0.2,0.6c-1.1,0.9-2.3,1.4-3.7,1.4
		c-1.6,0-2.9-0.6-4.1-1.7c-1.1-1.1-1.7-2.5-1.7-4.1s0.6-2.9,1.7-4.1c1.1-1.1,2.5-1.7,4.1-1.7s2.9,0.6,4.1,1.7
		c1.1,1.1,1.7,2.5,1.7,4.1c0,0.2-0.1,0.4-0.2,0.6c-0.1,0.1-0.4,0.2-0.6,0.2h-9c0.1,0.8,0.5,1.5,1.1,2.1c0.8,0.8,1.8,1.2,2.9,1.2
		c1,0,1.9-0.3,2.7-1C33.8,71.5,34,71.4,34.2,71.4z M35,67.6c-0.1-0.8-0.5-1.5-1.1-2.1c-0.8-0.8-1.8-1.2-2.9-1.2
		c-1.1,0-2.1,0.4-2.9,1.2c-0.6,0.6-1,1.3-1.1,2.1H35z"/>
	<path class="st4" d="M62.3,68.4c0,1.6-0.6,2.9-1.7,4.1c-1.1,1.1-2.5,1.7-4.1,1.7s-2.9-0.6-4.1-1.7c-1.1-1.1-1.7-2.5-1.7-4.1
		s0.6-2.9,1.7-4.1s2.5-1.7,4.1-1.7s2.9,0.6,4.1,1.7C61.8,65.5,62.3,66.8,62.3,68.4z M56.5,64.3c-1.1,0-2.1,0.4-2.9,1.2
		c-0.8,0.8-1.2,1.8-1.2,2.9s0.4,2.1,1.2,2.9c0.8,0.8,1.8,1.2,2.9,1.2c1.1,0,2.1-0.4,2.9-1.2c0.8-0.8,1.2-1.8,1.2-2.9
		s-0.4-2.1-1.2-2.9C58.6,64.7,57.7,64.3,56.5,64.3z"/>
	<path class="st4" d="M75.5,68.4c0,1.6-0.6,2.9-1.7,4.1c-1.1,1.1-2.5,1.7-4.1,1.7s-2.9-0.6-4.1-1.7C64.6,71.4,64,70,64,68.4
		s0.6-2.9,1.7-4.1c1.1-1.1,2.5-1.7,4.1-1.7s2.9,0.6,4.1,1.7C75,65.5,75.5,66.8,75.5,68.4z M69.7,64.3c-1.1,0-2.1,0.4-2.9,1.2
		c-0.8,0.8-1.2,1.8-1.2,2.9s0.4,2.1,1.2,2.9c0.8,0.8,1.8,1.2,2.9,1.2s2.1-0.4,2.9-1.2c0.8-0.8,1.2-1.8,1.2-2.9s-0.4-2.1-1.2-2.9
		C71.8,64.7,70.9,64.3,69.7,64.3z"/>
	<path class="st2" d="M87.1,72.4C87.1,72.5,87.1,72.5,87.1,72.4c-1.2,1.2-2.5,1.7-4.1,1.7s-2.9-0.6-4.1-1.7
		c-1.1-1.1-1.7-2.5-1.7-4.1s0.6-2.9,1.7-4.1c1.1-1.1,2.5-1.7,4.1-1.7s2.9,0.6,4.1,1.7c1.1,1.1,1.7,2.5,1.7,4.1v5.8
		c0,1.2-0.4,2.2-1.3,3.1c-1.2,1.2-2.7,1.8-4.4,1.8s-3.2-0.6-4.4-1.8c-0.5-0.4-0.8-0.9-1.1-1.5c-0.1-0.1-0.1-0.3-0.1-0.4
		c0-0.2,0.1-0.4,0.2-0.6s0.4-0.2,0.6-0.2s0.4,0.1,0.6,0.2c0,0.1,0.1,0.1,0.2,0.2c0.2,0.4,0.5,0.7,0.8,1c0.9,0.9,2,1.3,3.2,1.3
		s2.3-0.4,3.2-1.3c0.6-0.7,0.8-1.3,0.8-2L87.1,72.4L87.1,72.4z M82.9,64.3c-1.1,0-2.1,0.4-2.9,1.2c-0.8,0.8-1.2,1.8-1.2,2.9
		s0.4,2.1,1.2,2.9s1.8,1.2,2.9,1.2s2.1-0.4,2.9-1.2s1.2-1.8,1.2-2.9s-0.4-2.1-1.2-2.9C85,64.7,84.1,64.3,82.9,64.3z"/>
	<path class="st2" d="M47.5,64.2c-1-1-2.3-1.6-3.8-1.6c-1.5,0-2.8,0.5-3.8,1.6c-1,1-1.6,2.3-1.6,3.8v5.4c0,0.2,0.1,0.4,0.2,0.6
		c0.1,0.1,0.4,0.2,0.6,0.2c0.2,0,0.4-0.1,0.6-0.2c0.1-0.1,0.2-0.4,0.2-0.6V68c0-1,0.4-1.9,1.1-2.6s1.6-1.1,2.6-1.1
		c1,0,1.9,0.4,2.6,1.1s1.1,1.6,1.1,2.6v5.4c0,0.2,0.1,0.4,0.2,0.6s0.4,0.2,0.6,0.2c0.2,0,0.4-0.1,0.6-0.2c0.1-0.1,0.2-0.4,0.2-0.6
		V68C49.1,66.5,48.6,65.3,47.5,64.2z"/>
	<g id="eye">
		<g>
			<path class="st0" d="M59.2,32.3c-1.3-1.8-3-3.1-5.1-3.9c-1.2-0.4-2.4-0.7-3.8-0.7c-5.9,0-10.8,4.8-10.8,10.8c0,2.6,0.9,5,2.4,6.8
				c1,1.3,2.4,2.3,3.9,3c1.4,0.6,2.9,1,4.4,1c5.9,0,10.8-4.8,10.8-10.8C61.2,36.2,60.4,34,59.2,32.3z"/>
			<circle class="st5" cx="50.4" cy="38.5" r="4.9"/>
			<circle class="st0" cx="52.2" cy="36.7" r="1.3"/>
		</g>
	</g>
	<g id="Layer_2">
		<g>
			<polygon class="st2" points="30.6,32.8 30.6,58 50.4,45.4 			"/>
			<polygon class="st4" points="50.4,45.4 30.6,58 70.1,58 70.1,32.8 			"/>
		</g>
	</g>
</g>
</svg>
