<?xml version="1.0" encoding="utf-8"?>
<!-- Generator: Adobe Illustrator 19.1.0, SVG Export Plug-In . SVG Version: 6.00 Build 0)  -->
<svg version="1.1" xmlns="http://www.w3.org/2000/svg" xmlns:xlink="http://www.w3.org/1999/xlink" x="0px" y="0px"
	 viewBox="0 0 216 216" style="enable-background:new 0 0 216 216;" xml:space="preserve">
<style type="text/css">
	.st0{fill:#406CAB;}
	.st1{fill:#547FC0;}
	.st2{fill:#FFFFFF;}
	.st3{fill:#414142;}
	.st4{fill:#A6C2E5;}
</style>
<g id="Layer_1">
	<g>
		<polygon class="st0" points="-138.5,81 -224.3,81 -181.4,112.9 		"/>
		<polygon class="st1" points="-181.4,50.5 -138.5,81.2 -224.3,81.2 		"/>
		<path class="st2" d="M-162.2,79.8c-2.7-3.8-6.5-6.8-11-8.5c-2.6-1-5.3-1.5-8.2-1.5c-13,0-23.5,10.5-23.5,23.5
			c0,5.6,2,10.8,5.3,14.8c2.3,2.8,5.2,5.1,8.5,6.6c3,1.3,6.3,2.1,9.7,2.1c13,0,23.5-10.5,23.5-23.5
			C-157.9,88.3-159.5,83.7-162.2,79.8z"/>
		<circle class="st3" cx="-181.4" cy="93.4" r="10.7"/>
		<circle class="st2" cx="-177.3" cy="89.5" r="2.8"/>
		<polygon class="st1" points="-224.3,81 -224.3,135.9 -181.4,108.4 		"/>
		<polygon class="st4" points="-181.4,108.4 -224.3,135.9 -138.5,135.9 -138.5,81 		"/>
		<line class="st1" x1="-229.6" y1="98.2" x2="-265.4" y2="98.2"/>
		<path class="st1" d="M-229.6,99.3h-35.8c-0.6,0-1.1-0.5-1.1-1.1s0.5-1.1,1.1-1.1h35.8c0.6,0,1.1,0.5,1.1,1.1S-229,99.3-229.6,99.3
			z"/>
		<line class="st1" x1="-229.6" y1="110.8" x2="-257.4" y2="110.8"/>
		<path class="st1" d="M-229.6,111.9h-27.9c-0.6,0-1.1-0.5-1.1-1.1s0.5-1.1,1.1-1.1h27.9c0.6,0,1.1,0.5,1.1,1.1
			S-229,111.9-229.6,111.9z"/>
		<line class="st1" x1="-229.6" y1="123.4" x2="-247.5" y2="123.4"/>
		<path class="st1" d="M-229.6,124.5h-17.9c-0.6,0-1.1-0.5-1.1-1.1c0-0.6,0.5-1.1,1.1-1.1h17.9c0.6,0,1.1,0.5,1.1,1.1
			C-228.5,124-229,124.5-229.6,124.5z"/>
		<path class="st2" d="M-243.4,167.4C-243.5,167.4-243.5,167.5-243.4,167.4c-2.5,2.5-5.5,3.8-9,3.8c-3.5,0-6.4-1.2-8.9-3.7
			c-2.5-2.5-3.7-5.4-3.7-8.9c0-3.5,1.2-6.4,3.7-8.9c2.5-2.5,5.4-3.7,8.9-3.7c3.5,0,6.4,1.2,8.9,3.7c2.5,2.5,3.7,5.4,3.7,8.9v12.6
			c0,2.6-0.9,4.9-2.8,6.8c-2.6,2.6-5.8,4-9.6,4c-3.7,0-6.9-1.3-9.5-4c-1-1-1.8-2-2.4-3.1c-0.2-0.3-0.3-0.6-0.3-0.9
			c0-0.5,0.2-0.9,0.5-1.3c0.4-0.4,0.8-0.5,1.3-0.5s0.9,0.2,1.3,0.5c0.1,0.2,0.3,0.3,0.4,0.5c0.4,0.8,1,1.6,1.7,2.3
			c1.9,1.9,4.3,2.9,7,2.9c2.7,0,5.1-1,7-2.9c1.2-1.4,1.8-2.9,1.8-4.3V167.4z M-252.4,149.6c-2.5,0-4.6,0.9-6.4,2.6
			c-1.8,1.8-2.6,3.9-2.6,6.4c0,2.5,0.9,4.6,2.6,6.4c1.8,1.8,3.9,2.6,6.4,2.6s4.6-0.9,6.4-2.6s2.6-3.9,2.6-6.4c0-2.5-0.9-4.6-2.6-6.4
			C-247.8,150.5-249.9,149.6-252.4,149.6z"/>
		<path class="st2" d="M-216.7,165.1c0.5,0,0.9,0.2,1.3,0.5c0.4,0.4,0.5,0.8,0.5,1.3s-0.2,0.9-0.5,1.3c-2.3,2-5.1,3-8.2,3
			c-3.5,0-6.4-1.2-8.9-3.7c-2.5-2.5-3.7-5.4-3.7-8.9c0-3.5,1.2-6.4,3.7-8.9c2.5-2.5,5.4-3.7,8.9-3.7s6.4,1.2,8.9,3.7
			c2.5,2.5,3.7,5.4,3.7,8.9c0,0.5-0.2,0.9-0.5,1.3c-0.4,0.4-0.8,0.5-1.3,0.5h-19.6c0.3,1.7,1.2,3.2,2.5,4.6c1.8,1.8,3.9,2.6,6.4,2.6
			c2.2,0,4.2-0.7,5.8-2.1C-217.5,165.2-217.1,165.1-216.7,165.1z M-214.8,156.8c-0.3-1.7-1.2-3.2-2.5-4.6c-1.8-1.8-3.9-2.6-6.4-2.6
			s-4.6,0.9-6.4,2.6c-1.3,1.3-2.1,2.8-2.5,4.6H-214.8z"/>
		<path class="st4" d="M-155.3,158.6c0,3.5-1.2,6.4-3.7,8.9c-2.5,2.5-5.4,3.7-8.9,3.7s-6.4-1.2-8.9-3.7c-2.5-2.5-3.7-5.4-3.7-8.9
			c0-3.5,1.2-6.4,3.7-8.9c2.5-2.5,5.4-3.7,8.9-3.7s6.4,1.2,8.9,3.7C-156.6,152.2-155.3,155.1-155.3,158.6z M-167.9,149.6
			c-2.5,0-4.6,0.9-6.4,2.6c-1.8,1.8-2.6,3.9-2.6,6.4c0,2.5,0.9,4.6,2.6,6.4s3.9,2.6,6.4,2.6s4.6-0.9,6.4-2.6s2.6-3.9,2.6-6.4
			c0-2.5-0.9-4.6-2.6-6.4C-163.3,150.5-165.4,149.6-167.9,149.6z"/>
		<path class="st4" d="M-126.6,158.6c0,3.5-1.2,6.4-3.7,8.9c-2.5,2.5-5.4,3.7-8.9,3.7c-3.5,0-6.4-1.2-8.9-3.7
			c-2.5-2.5-3.7-5.4-3.7-8.9c0-3.5,1.2-6.4,3.7-8.9c2.5-2.5,5.4-3.7,8.9-3.7c3.5,0,6.4,1.2,8.9,3.7
			C-127.8,152.2-126.6,155.1-126.6,158.6z M-139.1,149.6c-2.5,0-4.6,0.9-6.4,2.6c-1.8,1.8-2.6,3.9-2.6,6.4c0,2.5,0.9,4.6,2.6,6.4
			s3.9,2.6,6.4,2.6s4.6-0.9,6.4-2.6s2.6-3.9,2.6-6.4c0-2.5-0.9-4.6-2.6-6.4C-134.5,150.5-136.7,149.6-139.1,149.6z"/>
		<path class="st2" d="M-101.4,167.4C-101.4,167.4-101.4,167.5-101.4,167.4c-2.5,2.5-5.5,3.8-9,3.8s-6.4-1.2-8.9-3.7
			c-2.5-2.5-3.7-5.4-3.7-8.9c0-3.5,1.2-6.4,3.7-8.9c2.5-2.5,5.4-3.7,8.9-3.7s6.4,1.2,8.9,3.7c2.5,2.5,3.7,5.4,3.7,8.9v12.6
			c0,2.6-0.9,4.9-2.8,6.8c-2.6,2.6-5.8,4-9.6,4s-6.9-1.3-9.5-4c-1-1-1.8-2-2.4-3.1c-0.2-0.3-0.3-0.6-0.3-0.9c0-0.5,0.2-0.9,0.5-1.3
			c0.4-0.4,0.8-0.5,1.3-0.5s0.9,0.2,1.3,0.5c0.1,0.2,0.3,0.3,0.4,0.5c0.4,0.8,1,1.6,1.7,2.3c1.9,1.9,4.3,2.9,7,2.9
			c2.7,0,5.1-1,7-2.9c1.2-1.4,1.8-2.9,1.8-4.3V167.4z M-110.4,149.6c-2.5,0-4.6,0.9-6.4,2.6c-1.8,1.8-2.6,3.9-2.6,6.4
			c0,2.5,0.9,4.6,2.6,6.4s3.9,2.6,6.4,2.6s4.6-0.9,6.4-2.6s2.6-3.9,2.6-6.4c0-2.5-0.9-4.6-2.6-6.4
			C-105.8,150.5-107.9,149.6-110.4,149.6z"/>
		<path class="st2" d="M-187.5,149.4c-2.3-2.3-5-3.4-8.3-3.4c-3.2,0-6,1.1-8.3,3.4c-2.3,2.3-3.4,5-3.4,8.3v11.7
			c0,0.5,0.2,0.9,0.5,1.3c0.4,0.4,0.8,0.5,1.3,0.5c0.5,0,0.9-0.2,1.3-0.5c0.4-0.4,0.5-0.8,0.5-1.3v-11.7c0-2.2,0.8-4.1,2.4-5.7
			c1.6-1.6,3.5-2.4,5.7-2.4c2.2,0,4.1,0.8,5.7,2.4c1.6,1.6,2.4,3.5,2.4,5.7v11.7c0,0.5,0.2,0.9,0.5,1.3c0.4,0.4,0.8,0.5,1.3,0.5
			c0.5,0,0.9-0.2,1.3-0.5c0.4-0.4,0.5-0.8,0.5-1.3v-11.7C-184.1,154.5-185.2,151.7-187.5,149.4z"/>
	</g>
	<g>
		<polygon class="st0" points="150.8,71.2 66.6,71.2 108.7,102.5 		"/>
		<polygon class="st1" points="108.7,41.3 150.8,71.4 66.6,71.4 		"/>
	</g>
	<line class="st1" x1="61.5" y1="88.1" x2="26.4" y2="88.1"/>
	<path class="st1" d="M61.5,89.2H26.4c-0.6,0-1.1-0.5-1.1-1.1c0-0.6,0.5-1.1,1.1-1.1h35.1c0.6,0,1.1,0.5,1.1,1.1
		C62.6,88.7,62.1,89.2,61.5,89.2z"/>
	<line class="st1" x1="61.5" y1="100.4" x2="34.2" y2="100.4"/>
	<path class="st1" d="M61.5,101.5H34.2c-0.6,0-1.1-0.5-1.1-1.1s0.5-1.1,1.1-1.1h27.3c0.6,0,1.1,0.5,1.1,1.1S62.1,101.5,61.5,101.5z"
		/>
	<line class="st1" x1="61.5" y1="112.8" x2="43.9" y2="112.8"/>
	<path class="st1" d="M61.5,113.8H43.9c-0.6,0-1.1-0.5-1.1-1.1s0.5-1.1,1.1-1.1h17.6c0.6,0,1.1,0.5,1.1,1.1S62.1,113.8,61.5,113.8z"
		/>
	<path class="st1" d="M47.9,155.9C47.9,156,47.9,156,47.9,155.9c-2.5,2.5-5.4,3.7-8.8,3.7c-3.4,0-6.3-1.2-8.7-3.6
		c-2.4-2.4-3.6-5.3-3.6-8.7c0-3.4,1.2-6.3,3.6-8.7c2.4-2.4,5.3-3.6,8.7-3.6c3.4,0,6.3,1.2,8.7,3.6c2.4,2.4,3.6,5.3,3.6,8.7v12.3
		c0,2.6-0.9,4.8-2.8,6.7c-2.6,2.6-5.7,3.9-9.4,3.9s-6.8-1.3-9.3-3.9c-1-0.9-1.7-2-2.3-3.1c-0.2-0.3-0.3-0.6-0.3-0.9
		c0-0.5,0.2-0.9,0.5-1.2c0.3-0.3,0.8-0.5,1.2-0.5s0.9,0.2,1.3,0.5c0.1,0.2,0.3,0.3,0.4,0.5c0.4,0.8,1,1.5,1.7,2.2
		c1.9,1.9,4.2,2.8,6.9,2.8c2.7,0,5-0.9,6.9-2.8c1.2-1.4,1.8-2.8,1.8-4.2V155.9z M39.1,138.5c-2.4,0-4.5,0.9-6.2,2.6
		c-1.7,1.7-2.6,3.8-2.6,6.2c0,2.4,0.9,4.5,2.6,6.2c1.7,1.7,3.8,2.6,6.2,2.6c2.4,0,4.5-0.9,6.2-2.6c1.7-1.7,2.6-3.8,2.6-6.2
		c0-2.4-0.9-4.5-2.6-6.2C43.6,139.3,41.5,138.5,39.1,138.5z"/>
	<path class="st1" d="M74.1,153.6c0.5,0,0.9,0.2,1.2,0.5c0.3,0.3,0.5,0.8,0.5,1.2s-0.2,0.9-0.5,1.3c-2.3,2-5,3-8,3
		c-3.4,0-6.3-1.2-8.7-3.6c-2.4-2.4-3.6-5.3-3.6-8.7c0-3.4,1.2-6.3,3.6-8.7c2.4-2.4,5.3-3.6,8.7-3.6c3.4,0,6.3,1.2,8.7,3.6
		c2.4,2.4,3.6,5.3,3.6,8.7c0,0.5-0.2,0.9-0.5,1.2c-0.3,0.3-0.8,0.5-1.2,0.5H58.6c0.3,1.7,1.1,3.2,2.4,4.5c1.7,1.7,3.8,2.6,6.2,2.6
		c2.2,0,4.1-0.7,5.7-2.1C73.3,153.8,73.7,153.6,74.1,153.6z M76,145.5c-0.3-1.7-1.1-3.2-2.4-4.5c-1.7-1.7-3.8-2.6-6.2-2.6
		c-2.4,0-4.5,0.9-6.2,2.6c-1.3,1.3-2.1,2.8-2.4,4.5H76z"/>
	<path class="st4" d="M134.3,147.3c0,3.4-1.2,6.3-3.6,8.7c-2.4,2.4-5.3,3.6-8.7,3.6s-6.3-1.2-8.7-3.6c-2.4-2.4-3.6-5.3-3.6-8.7
		c0-3.4,1.2-6.3,3.6-8.7c2.4-2.4,5.3-3.6,8.7-3.6s6.3,1.2,8.7,3.6C133.1,141,134.3,143.9,134.3,147.3z M121.9,138.5
		c-2.4,0-4.5,0.9-6.2,2.6c-1.7,1.7-2.6,3.8-2.6,6.2c0,2.4,0.9,4.5,2.6,6.2c1.7,1.7,3.8,2.6,6.2,2.6c2.4,0,4.5-0.9,6.2-2.6
		c1.7-1.7,2.6-3.8,2.6-6.2c0-2.4-0.9-4.5-2.6-6.2C126.4,139.3,124.4,138.5,121.9,138.5z"/>
	<path class="st4" d="M162.5,147.3c0,3.4-1.2,6.3-3.6,8.7c-2.4,2.4-5.3,3.6-8.7,3.6c-3.4,0-6.3-1.2-8.7-3.6
		c-2.4-2.4-3.6-5.3-3.6-8.7c0-3.4,1.2-6.3,3.6-8.7c2.4-2.4,5.3-3.6,8.7-3.6c3.4,0,6.3,1.2,8.7,3.6
		C161.3,141,162.5,143.9,162.5,147.3z M150.1,138.5c-2.4,0-4.5,0.9-6.2,2.6c-1.7,1.7-2.6,3.8-2.6,6.2c0,2.4,0.9,4.5,2.6,6.2
		c1.7,1.7,3.8,2.6,6.2,2.6c2.4,0,4.5-0.9,6.2-2.6c1.7-1.7,2.6-3.8,2.6-6.2c0-2.4-0.9-4.5-2.6-6.2
		C154.6,139.3,152.6,138.5,150.1,138.5z"/>
	<path class="st1" d="M187.1,155.9C187.1,156,187.1,156,187.1,155.9c-2.5,2.5-5.4,3.7-8.8,3.7s-6.3-1.2-8.7-3.6
		c-2.4-2.4-3.6-5.3-3.6-8.7c0-3.4,1.2-6.3,3.6-8.7c2.4-2.4,5.3-3.6,8.7-3.6s6.3,1.2,8.7,3.6c2.4,2.4,3.6,5.3,3.6,8.7v12.3
		c0,2.6-0.9,4.8-2.8,6.7c-2.6,2.6-5.7,3.9-9.4,3.9c-3.7,0-6.8-1.3-9.3-3.9c-1-0.9-1.7-2-2.3-3.1c-0.2-0.3-0.3-0.6-0.3-0.9
		c0-0.5,0.2-0.9,0.5-1.2c0.3-0.3,0.8-0.5,1.2-0.5s0.9,0.2,1.3,0.5c0.1,0.2,0.3,0.3,0.4,0.5c0.4,0.8,1,1.5,1.7,2.2
		c1.9,1.9,4.2,2.8,6.9,2.8c2.7,0,5-0.9,6.9-2.8c1.2-1.4,1.8-2.8,1.8-4.2V155.9z M178.3,138.5c-2.4,0-4.5,0.9-6.2,2.6
		c-1.7,1.7-2.6,3.8-2.6,6.2c0,2.4,0.9,4.5,2.6,6.2s3.8,2.6,6.2,2.6s4.5-0.9,6.2-2.6s2.6-3.8,2.6-6.2c0-2.4-0.9-4.5-2.6-6.2
		C182.8,139.3,180.8,138.5,178.3,138.5z"/>
	<path class="st1" d="M102.7,138.3c-2.2-2.2-4.9-3.4-8.1-3.4s-5.9,1.1-8.1,3.4c-2.2,2.2-3.4,4.9-3.4,8.1v11.5c0,0.5,0.2,0.9,0.5,1.2
		c0.3,0.3,0.8,0.5,1.2,0.5c0.5,0,0.9-0.2,1.2-0.5c0.3-0.3,0.5-0.8,0.5-1.2v-11.5c0-2.2,0.8-4.1,2.3-5.6c1.5-1.5,3.4-2.3,5.6-2.3
		c2.2,0,4.1,0.8,5.6,2.3c1.5,1.5,2.3,3.4,2.3,5.6v11.5c0,0.5,0.2,0.9,0.5,1.2c0.3,0.3,0.8,0.5,1.2,0.5c0.5,0,0.9-0.2,1.2-0.5
		c0.3-0.3,0.5-0.8,0.5-1.2v-11.5C106.1,143.3,105,140.6,102.7,138.3z"/>
</g>
<g id="eye">
	<g>
		<path class="st2" d="M127.5,70.1c-2.7-3.8-6.4-6.7-10.8-8.3c-2.5-0.9-5.2-1.5-8.1-1.5c-12.7,0-23.1,10.3-23.1,23.1
			c0,5.5,1.9,10.6,5.2,14.6c2.2,2.7,5.1,5,8.3,6.4c2.9,1.3,6.1,2.1,9.5,2.1c12.7,0,23.1-10.3,23.1-23.1
			C131.8,78.4,130.2,73.9,127.5,70.1z"/>
		<circle class="st3" cx="108.7" cy="83.4" r="10.5"/>
		<circle class="st2" cx="112.7" cy="79.6" r="2.7"/>
	</g>
</g>
<g id="Layer_2">
	<g>
		<polygon class="st1" points="66.6,71.2 66.6,125 108.7,98.1 		"/>
		<polygon class="st4" points="108.7,98.1 66.6,125 150.8,125 150.8,71.2 		"/>
	</g>
</g>
</svg>
