<?xml version="1.0" encoding="utf-8"?>
<!-- Generator: Adobe Illustrator 19.1.0, SVG Export Plug-In . SVG Version: 6.00 Build 0)  -->
<svg version="1.1" id="Layer_1" xmlns="http://www.w3.org/2000/svg" xmlns:xlink="http://www.w3.org/1999/xlink" x="0px" y="0px"
	 viewBox="-13 15 72 72" style="enable-background:new -13 15 72 72;" xml:space="preserve">
<style type="text/css">
	.st0{opacity:0.88;fill:#FFFFFF;}
	.st1{fill:#3F6BAA;}
	.st2{fill:#547FBF;}
	.st3{fill:#FFFFFF;}
	.st4{fill:#414141;}
	.st5{fill:#A4C0E4;}
</style>
<rect x="-12.6" y="15.4" class="st0" width="71.2" height="71.2"/>
<polygon class="st1" points="38.3,39.4 10,39.4 24.2,49.9 "/>
<polygon class="st2" points="24.2,29.3 38.3,39.4 10,39.4 "/>
<path class="st3" d="M30.5,39c-0.9-1.3-2.2-2.2-3.6-2.8c-0.8-0.3-1.8-0.5-2.7-0.5c-4.3,0-7.8,3.5-7.8,7.8c0,1.9,0.7,3.6,1.7,4.9
	c0.8,0.9,1.7,1.7,2.8,2.2c1,0.4,2.1,0.7,3.2,0.7c4.3,0,7.8-3.5,7.8-7.8C31.9,41.8,31.4,40.3,30.5,39z"/>
<circle class="st4" cx="24.2" cy="43.5" r="3.5"/>
<circle class="st3" cx="25.5" cy="42.2" r="0.9"/>
<polygon class="st2" points="10,39.4 10,57.5 24.2,48.4 "/>
<polygon class="st5" points="24.2,48.4 10,57.5 38.3,57.5 38.3,39.4 "/>
<line class="st2" x1="8.3" y1="45.1" x2="-3.5" y2="45.1"/>
<path class="st2" d="M8.3,45.4H-3.5c-0.2,0-0.4-0.2-0.4-0.4c0-0.2,0.2-0.4,0.4-0.4H8.3c0.2,0,0.4,0.2,0.4,0.4
	C8.7,45.2,8.5,45.4,8.3,45.4z"/>
<line class="st2" x1="8.3" y1="49.2" x2="-0.9" y2="49.2"/>
<path class="st2" d="M8.3,49.6h-9.2c-0.2,0-0.4-0.2-0.4-0.4c0-0.2,0.2-0.4,0.4-0.4h9.2c0.2,0,0.4,0.2,0.4,0.4
	C8.7,49.4,8.5,49.6,8.3,49.6z"/>
<line class="st2" x1="8.3" y1="53.4" x2="2.4" y2="53.4"/>
<path class="st2" d="M8.3,53.7H2.4c-0.2,0-0.4-0.2-0.4-0.4C2,53.2,2.2,53,2.4,53h5.9c0.2,0,0.4,0.2,0.4,0.4
	C8.7,53.6,8.5,53.7,8.3,53.7z"/>
<path class="st2" d="M3.7,67.9C3.7,67.9,3.7,67.9,3.7,67.9c-0.8,0.8-1.8,1.2-3,1.2s-2.1-0.4-2.9-1.2C-3,67.1-3.4,66.1-3.4,65
	c0-1.1,0.4-2.1,1.2-2.9c0.8-0.8,1.8-1.2,2.9-1.2s2.1,0.4,2.9,1.2c0.8,0.8,1.2,1.8,1.2,2.9v4.2c0,0.9-0.3,1.6-0.9,2.3
	c-0.9,0.9-1.9,1.3-3.2,1.3s-2.3-0.4-3.1-1.3c-0.3-0.3-0.6-0.7-0.8-1c-0.1-0.1-0.1-0.2-0.1-0.3c0-0.2,0.1-0.3,0.2-0.4
	c0.1-0.1,0.3-0.2,0.4-0.2s0.3,0.1,0.4,0.2c0,0.1,0.1,0.1,0.1,0.2c0.1,0.3,0.3,0.5,0.6,0.7c0.6,0.6,1.4,1,2.3,1c0.9,0,1.7-0.3,2.3-1
	c0.4-0.5,0.6-0.9,0.6-1.4V67.9z M0.8,62c-0.8,0-1.5,0.3-2.1,0.9c-0.6,0.6-0.9,1.3-0.9,2.1c0,0.8,0.3,1.5,0.9,2.1s1.3,0.9,2.1,0.9
	s1.5-0.3,2.1-0.9s0.9-1.3,0.9-2.1c0-0.8-0.3-1.5-0.9-2.1C2.3,62.3,1.6,62,0.8,62z"/>
<path class="st2" d="M12.5,67.1c0.2,0,0.3,0.1,0.4,0.2c0.1,0.1,0.2,0.3,0.2,0.4S13.1,68,13,68.1c-0.8,0.7-1.7,1-2.7,1
	c-1.1,0-2.1-0.4-2.9-1.2c-0.8-0.8-1.2-1.8-1.2-2.9c0-1.1,0.4-2.1,1.2-2.9c0.8-0.8,1.8-1.2,2.9-1.2s2.1,0.4,2.9,1.2
	c0.8,0.8,1.2,1.8,1.2,2.9c0,0.2-0.1,0.3-0.2,0.4c-0.1,0.1-0.3,0.2-0.4,0.2H7.3c0.1,0.6,0.4,1.1,0.8,1.5c0.6,0.6,1.3,0.9,2.1,0.9
	c0.7,0,1.4-0.2,1.9-0.7C12.3,67.2,12.4,67.1,12.5,67.1z M13.2,64.4c-0.1-0.6-0.4-1.1-0.8-1.5c-0.6-0.6-1.3-0.9-2.1-0.9
	c-0.8,0-1.5,0.3-2.1,0.9c-0.4,0.4-0.7,0.9-0.8,1.5H13.2z"/>
<path class="st1" d="M32.8,65c0,1.1-0.4,2.1-1.2,2.9c-0.8,0.8-1.8,1.2-2.9,1.2s-2.1-0.4-2.9-1.2c-0.8-0.8-1.2-1.8-1.2-2.9
	c0-1.1,0.4-2.1,1.2-2.9c0.8-0.8,1.8-1.2,2.9-1.2s2.1,0.4,2.9,1.2C32.4,62.8,32.8,63.8,32.8,65z M28.6,62c-0.8,0-1.5,0.3-2.1,0.9
	c-0.6,0.6-0.9,1.3-0.9,2.1c0,0.8,0.3,1.5,0.9,2.1c0.6,0.6,1.3,0.9,2.1,0.9s1.5-0.3,2.1-0.9s0.9-1.3,0.9-2.1c0-0.8-0.3-1.5-0.9-2.1
	C30.2,62.3,29.5,62,28.6,62z"/>
<path class="st1" d="M42.3,65c0,1.1-0.4,2.1-1.2,2.9c-0.8,0.8-1.8,1.2-2.9,1.2s-2.1-0.4-2.9-1.2C34.4,67.1,34,66.1,34,65
	c0-1.1,0.4-2.1,1.2-2.9c0.8-0.8,1.8-1.2,2.9-1.2s2.1,0.4,2.9,1.2C41.9,62.8,42.3,63.8,42.3,65z M38.1,62c-0.8,0-1.5,0.3-2.1,0.9
	c-0.6,0.6-0.9,1.3-0.9,2.1c0,0.8,0.3,1.5,0.9,2.1s1.3,0.9,2.1,0.9s1.5-0.3,2.1-0.9s0.9-1.3,0.9-2.1c0-0.8-0.3-1.5-0.9-2.1
	C39.6,62.3,38.9,62,38.1,62z"/>
<path class="st2" d="M50.6,67.9C50.6,67.9,50.6,67.9,50.6,67.9c-0.8,0.8-1.8,1.2-3,1.2c-1.1,0-2.1-0.4-2.9-1.2
	c-0.8-0.8-1.2-1.8-1.2-2.9c0-1.1,0.4-2.1,1.2-2.9c0.8-0.8,1.8-1.2,2.9-1.2c1.1,0,2.1,0.4,2.9,1.2c0.8,0.8,1.2,1.8,1.2,2.9v4.2
	c0,0.9-0.3,1.6-0.9,2.3c-0.9,0.9-1.9,1.3-3.2,1.3s-2.3-0.4-3.1-1.3c-0.3-0.3-0.6-0.7-0.8-1c-0.1-0.1-0.1-0.2-0.1-0.3
	c0-0.2,0.1-0.3,0.2-0.4c0.1-0.1,0.3-0.2,0.4-0.2s0.3,0.1,0.4,0.2c0,0.1,0.1,0.1,0.1,0.2c0.1,0.3,0.3,0.5,0.6,0.7
	c0.6,0.6,1.4,1,2.3,1c0.9,0,1.7-0.3,2.3-1c0.4-0.5,0.6-0.9,0.6-1.4V67.9z M47.6,62c-0.8,0-1.5,0.3-2.1,0.9c-0.6,0.6-0.9,1.3-0.9,2.1
	c0,0.8,0.3,1.5,0.9,2.1s1.3,0.9,2.1,0.9c0.8,0,1.5-0.3,2.1-0.9c0.6-0.6,0.9-1.3,0.9-2.1c0-0.8-0.3-1.5-0.9-2.1
	C49.1,62.3,48.4,62,47.6,62z"/>
<path class="st2" d="M22.2,62c-0.8-0.8-1.7-1.1-2.7-1.1c-1.1,0-2,0.4-2.7,1.1c-0.8,0.8-1.1,1.7-1.1,2.7v3.9c0,0.2,0.1,0.3,0.2,0.4
	c0.1,0.1,0.3,0.2,0.4,0.2c0.2,0,0.3-0.1,0.4-0.2c0.1-0.1,0.2-0.3,0.2-0.4v-3.9c0-0.7,0.3-1.4,0.8-1.9c0.5-0.5,1.2-0.8,1.9-0.8
	c0.7,0,1.4,0.3,1.9,0.8c0.5,0.5,0.8,1.2,0.8,1.9v3.9c0,0.2,0.1,0.3,0.2,0.4c0.1,0.1,0.3,0.2,0.4,0.2c0.2,0,0.3-0.1,0.4-0.2
	c0.1-0.1,0.2-0.3,0.2-0.4v-3.9C23.3,63.6,22.9,62.7,22.2,62z"/>
</svg>
