<?xml version="1.0" encoding="utf-8"?>
<!-- Generator: Adobe Illustrator 19.1.0, SVG Export Plug-In . SVG Version: 6.00 Build 0)  -->
<svg version="1.1" id="Layer_1" xmlns="http://www.w3.org/2000/svg" xmlns:xlink="http://www.w3.org/1999/xlink" x="0px" y="0px"
	 viewBox="0 0 50 50" style="enable-background:new 0 0 50 50;" xml:space="preserve">
<style type="text/css">
	.st0{fill:#406DAC;}
	.st1{fill:#5480C1;}
	.st2{fill:none;}
	.st3{fill:#A6C2E5;}
	.st4{fill:#FFFFFF;}
	.st5{fill:#424243;}
</style>
<g>
	<g>
		<polygon class="st0" points="-80.2,2.6 -119.6,2.6 -99.9,17.2 		"/>
		<polygon class="st1" points="-99.9,-11.4 -80.2,2.7 -119.6,2.7 		"/>
	</g>
	<line class="st2" x1="-122" y1="10.5" x2="-138.4" y2="10.5"/>
	<path class="st1" d="M-122,11h-16.4c-0.3,0-0.5-0.2-0.5-0.5s0.2-0.5,0.5-0.5h16.4c0.3,0,0.5,0.2,0.5,0.5S-121.7,11-122,11z"/>
	<line class="st2" x1="-122" y1="16.3" x2="-134.8" y2="16.3"/>
	<path class="st1" d="M-122,16.8h-12.8c-0.3,0-0.5-0.2-0.5-0.5c0-0.3,0.2-0.5,0.5-0.5h12.8c0.3,0,0.5,0.2,0.5,0.5
		C-121.5,16.5-121.7,16.8-122,16.8z"/>
	<line class="st2" x1="-122" y1="22.1" x2="-130.2" y2="22.1"/>
	<path class="st1" d="M-122,22.5h-8.2c-0.3,0-0.5-0.2-0.5-0.5s0.2-0.5,0.5-0.5h8.2c0.3,0,0.5,0.2,0.5,0.5S-121.7,22.5-122,22.5z"/>
	<path class="st1" d="M-128.4,42.3C-128.4,42.3-128.4,42.3-128.4,42.3c-1.2,1.2-2.5,1.7-4.1,1.7c-1.6,0-2.9-0.6-4.1-1.7
		c-1.1-1.1-1.7-2.5-1.7-4.1c0-1.6,0.6-2.9,1.7-4.1c1.1-1.1,2.5-1.7,4.1-1.7c1.6,0,2.9,0.6,4.1,1.7c1.1,1.1,1.7,2.5,1.7,4.1V44
		c0,1.2-0.4,2.2-1.3,3.1c-1.2,1.2-2.7,1.8-4.4,1.8s-3.2-0.6-4.4-1.8c-0.5-0.4-0.8-0.9-1.1-1.5c-0.1-0.1-0.1-0.3-0.1-0.4
		c0-0.2,0.1-0.4,0.2-0.6c0.1-0.1,0.4-0.2,0.6-0.2c0.2,0,0.4,0.1,0.6,0.2c0,0.1,0.1,0.1,0.2,0.2c0.2,0.4,0.5,0.7,0.8,1
		c0.9,0.9,2,1.3,3.2,1.3s2.3-0.4,3.2-1.3c0.6-0.7,0.8-1.3,0.8-2L-128.4,42.3L-128.4,42.3z M-132.5,34.1c-1.1,0-2.1,0.4-2.9,1.2
		c-0.8,0.8-1.2,1.8-1.2,2.9c0,1.1,0.4,2.1,1.2,2.9c0.8,0.8,1.8,1.2,2.9,1.2c1.1,0,2.1-0.4,2.9-1.2c0.8-0.8,1.2-1.8,1.2-2.9
		c0-1.1-0.4-2.1-1.2-2.9C-130.4,34.5-131.4,34.1-132.5,34.1z"/>
	<path class="st1" d="M-116.1,41.2c0.2,0,0.4,0.1,0.6,0.2c0.1,0.1,0.2,0.4,0.2,0.6s-0.1,0.4-0.2,0.6c-1.1,0.9-2.3,1.4-3.7,1.4
		c-1.6,0-2.9-0.6-4.1-1.7c-1.1-1.1-1.7-2.5-1.7-4.1c0-1.6,0.6-2.9,1.7-4.1c1.1-1.1,2.5-1.7,4.1-1.7c1.6,0,2.9,0.6,4.1,1.7
		c1.1,1.1,1.7,2.5,1.7,4.1c0,0.2-0.1,0.4-0.2,0.6c-0.1,0.1-0.4,0.2-0.6,0.2h-9c0.1,0.8,0.5,1.5,1.1,2.1c0.8,0.8,1.8,1.2,2.9,1.2
		c1,0,1.9-0.3,2.7-1C-116.5,41.3-116.3,41.2-116.1,41.2z M-115.2,37.4c-0.1-0.8-0.5-1.5-1.1-2.1c-0.8-0.8-1.8-1.2-2.9-1.2
		s-2.1,0.4-2.9,1.2c-0.6,0.6-1,1.3-1.1,2.1H-115.2z"/>
	<path class="st3" d="M-87.9,38.2c0,1.6-0.6,2.9-1.7,4.1c-1.1,1.1-2.5,1.7-4.1,1.7s-2.9-0.6-4.1-1.7c-1.1-1.1-1.7-2.5-1.7-4.1
		c0-1.6,0.6-2.9,1.7-4.1c1.1-1.1,2.5-1.7,4.1-1.7s2.9,0.6,4.1,1.7C-88.5,35.3-87.9,36.6-87.9,38.2z M-93.7,34.1
		c-1.1,0-2.1,0.4-2.9,1.2c-0.8,0.8-1.2,1.8-1.2,2.9c0,1.1,0.4,2.1,1.2,2.9c0.8,0.8,1.8,1.2,2.9,1.2s2.1-0.4,2.9-1.2
		c0.8-0.8,1.2-1.8,1.2-2.9c0-1.1-0.4-2.1-1.2-2.9C-91.6,34.5-92.6,34.1-93.7,34.1z"/>
	<path class="st3" d="M-74.7,38.2c0,1.6-0.6,2.9-1.7,4.1c-1.1,1.1-2.5,1.7-4.1,1.7s-2.9-0.6-4.1-1.7c-1.1-1.1-1.7-2.5-1.7-4.1
		c0-1.6,0.6-2.9,1.7-4.1c1.1-1.1,2.5-1.7,4.1-1.7s2.9,0.6,4.1,1.7C-75.3,35.3-74.7,36.6-74.7,38.2z M-80.5,34.1
		c-1.1,0-2.1,0.4-2.9,1.2c-0.8,0.8-1.2,1.8-1.2,2.9c0,1.1,0.4,2.1,1.2,2.9c0.8,0.8,1.8,1.2,2.9,1.2s2.1-0.4,2.9-1.2
		c0.8-0.8,1.2-1.8,1.2-2.9c0-1.1-0.4-2.1-1.2-2.9C-78.4,34.5-79.4,34.1-80.5,34.1z"/>
	<path class="st1" d="M-63.2,42.3C-63.2,42.3-63.2,42.3-63.2,42.3c-1.2,1.2-2.5,1.7-4.1,1.7s-2.9-0.6-4.1-1.7
		c-1.1-1.1-1.7-2.5-1.7-4.1c0-1.6,0.6-2.9,1.7-4.1c1.1-1.1,2.5-1.7,4.1-1.7s2.9,0.6,4.1,1.7c1.1,1.1,1.7,2.5,1.7,4.1V44
		c0,1.2-0.4,2.2-1.3,3.1c-1.2,1.2-2.7,1.8-4.4,1.8s-3.2-0.6-4.4-1.8c-0.5-0.4-0.8-0.9-1.1-1.5c-0.1-0.1-0.1-0.3-0.1-0.4
		c0-0.2,0.1-0.4,0.2-0.6c0.1-0.1,0.4-0.2,0.6-0.2s0.4,0.1,0.6,0.2c0,0.1,0.1,0.1,0.2,0.2c0.2,0.4,0.5,0.7,0.8,1
		c0.9,0.9,2,1.3,3.2,1.3s2.3-0.4,3.2-1.3c0.6-0.7,0.8-1.3,0.8-2L-63.2,42.3L-63.2,42.3z M-67.3,34.1c-1.1,0-2.1,0.4-2.9,1.2
		c-0.8,0.8-1.2,1.8-1.2,2.9c0,1.1,0.4,2.1,1.2,2.9c0.8,0.8,1.8,1.2,2.9,1.2s2.1-0.4,2.9-1.2c0.8-0.8,1.2-1.8,1.2-2.9
		c0-1.1-0.4-2.1-1.2-2.9C-65.2,34.5-66.1,34.1-67.3,34.1z"/>
	<path class="st1" d="M-102.7,34c-1-1-2.3-1.6-3.8-1.6s-2.8,0.5-3.8,1.6c-1,1-1.6,2.3-1.6,3.8v5.4c0,0.2,0.1,0.4,0.2,0.6
		s0.4,0.2,0.6,0.2c0.2,0,0.4-0.1,0.6-0.2c0.1-0.1,0.2-0.4,0.2-0.6v-5.4c0-1,0.4-1.9,1.1-2.6c0.7-0.7,1.6-1.1,2.6-1.1
		c1,0,1.9,0.4,2.6,1.1c0.7,0.7,1.1,1.6,1.1,2.6v5.4c0,0.2,0.1,0.4,0.2,0.6s0.4,0.2,0.6,0.2c0.2,0,0.4-0.1,0.6-0.2
		c0.1-0.1,0.2-0.4,0.2-0.6v-5.4C-101.1,36.4-101.6,35.1-102.7,34z"/>
	<g id="eye">
		<g>
			<path class="st4" d="M-91.1,2.1c-1.3-1.8-3-3.1-5.1-3.9c-1.2-0.4-2.4-0.7-3.8-0.7c-5.9,0-10.8,4.8-10.8,10.8c0,2.6,0.9,5,2.4,6.8
				c1,1.3,2.4,2.3,3.9,3c1.4,0.6,2.9,1,4.4,1c5.9,0,10.8-4.8,10.8-10.8C-89.1,6-89.8,3.9-91.1,2.1z"/>
			<circle class="st5" cx="-99.9" cy="8.3" r="4.9"/>
			<circle class="st4" cx="-98" cy="6.5" r="1.3"/>
		</g>
	</g>
	<g id="Layer_2">
		<g>
			<polygon class="st1" points="-119.6,2.6 -119.6,27.8 -99.9,15.2 			"/>
			<polygon class="st3" points="-99.9,15.2 -119.6,27.8 -80.2,27.8 -80.2,2.6 			"/>
		</g>
	</g>
</g>
<g>
	<g>
		<line class="st3" x1="6.6" y1="14" x2="43.5" y2="14"/>
		<path class="st3" d="M43.5,16.5H6.6c-1.4,0-2.5-1.1-2.5-2.5s1.1-2.5,2.5-2.5h36.9c1.4,0,2.5,1.1,2.5,2.5S44.9,16.5,43.5,16.5z"/>
	</g>
	<g>
		<line class="st3" x1="6.5" y1="25" x2="43.4" y2="25"/>
		<path class="st3" d="M43.4,27.5H6.5C5.1,27.5,4,26.4,4,25s1.1-2.5,2.5-2.5h36.9c1.4,0,2.5,1.1,2.5,2.5S44.8,27.5,43.4,27.5z"/>
	</g>
	<g>
		<line class="st3" x1="6.5" y1="36" x2="43.4" y2="36"/>
		<path class="st3" d="M43.4,38.5H6.5C5.1,38.5,4,37.4,4,36s1.1-2.5,2.5-2.5h36.9c1.4,0,2.5,1.1,2.5,2.5S44.8,38.5,43.4,38.5z"/>
	</g>
</g>
</svg>
