<?xml version="1.0" encoding="utf-8"?>
<!-- Generator: Adobe Illustrator 19.1.0, SVG Export Plug-In . SVG Version: 6.00 Build 0)  -->
<svg version="1.1" id="Layer_1" xmlns="http://www.w3.org/2000/svg" xmlns:xlink="http://www.w3.org/1999/xlink" x="0px" y="0px"
	 viewBox="-13 15 72 72" style="enable-background:new -13 15 72 72;" xml:space="preserve">
<style type="text/css">
	.st0{fill:none;stroke:#FFFFFF;stroke-width:2;stroke-miterlimit:10;}
</style>
<g id="black">
	<g id="slice" transform="translate(-600.000000, 0.000000)">
	</g>
	<g id="linkedin" transform="translate(16.000000, 17.000000)">
		<path class="st0" d="M2.1,54V22.1h-9.9V54H2.1z M2.1,10.8c-0.1-2.9-2-5-5-5c-3.1,0-5.1,2.2-5.1,5c0,2.8,2,5,5,5H-3
			C0.1,15.9,2.1,13.6,2.1,10.8z M18.2,54V35.8c0-1,0.1-1.9,0.4-2.6c0.8-1.9,2.6-4,5.5-4c3.9,0,6.4,2.2,6.4,6.6V54h9.9V35.4
			c0-10-5.3-14.6-12.4-14.6c-5.8,0-8.4,3.3-9.8,5.5l0.1-4.3H8.3C8.4,25,8.3,54,8.3,54H18.2z"/>
	</g>
</g>
</svg>
