<?xml version="1.0" encoding="utf-8"?>
<!-- Generator: Adobe Illustrator 19.1.0, SVG Export Plug-In . SVG Version: 6.00 Build 0)  -->
<svg version="1.1" id="Layer_1" xmlns="http://www.w3.org/2000/svg" xmlns:xlink="http://www.w3.org/1999/xlink" x="0px" y="0px"
	 viewBox="28 -21.8 155.8 143.8" style="enable-background:new 28 -21.8 155.8 143.8;" xml:space="preserve">
<style type="text/css">
	.st0{fill:#FFFFFF;}
</style>
<g>
	<g>
		<path class="st0" d="M89.9,94.5c-11.4,0-23-3.3-34.5-9.7c-1-0.5-1.4-1.7-1.1-2.7c0.3-1.1,1.3-1.7,2.5-1.6c8.6,1,17.8-1,24.6-5.1
			c-7.9-1.9-14.3-7-17.7-14.4c-0.4-0.8-0.2-1.8,0.4-2.5c0.6-0.7,1.6-1,2.4-0.7c1,0.3,2,0.5,3,0.6c-6-3.6-12.4-10.4-12.4-20.7
			c0-0.9,0.5-1.7,1.3-2.1c0.8-0.4,1.8-0.3,2.5,0.3c0.7,0.6,1.5,1.1,2.4,1.5c-1.7-2.3-3.2-5.2-4-8.5c-1.6-6-0.7-12,2.6-17.5
			c0.4-0.7,1.1-1.1,1.8-1.1c0.7-0.1,1.5,0.3,2,0.9c6.9,8.6,19,18.9,38.6,20.8c-0.4-6.2,1.5-16.4,10.1-21.4
			c10.5-6.1,20.7-5.3,29.4,2.3c3.9-0.9,10-3.5,11.2-4.4c0.8-0.6,1.9-0.6,2.7,0c0.8,0.6,1.2,1.6,0.9,2.5c-0.6,2.2-1.9,4.6-3.5,6.8
			c1.3-0.4,2.4-0.8,3-1.1c0.9-0.5,2.1-0.3,2.8,0.5c0.7,0.8,0.8,1.9,0.3,2.8c-2.7,4.3-7.2,8.4-10.1,10.6c1.2,14.5-4.7,30.6-15.9,43.1
			C123,87.1,107,94.5,89.9,94.5L89.9,94.5L89.9,94.5z M66.5,85c7.8,3.2,15.7,4.8,23.4,4.8c0,0,0,0,0,0c15.8,0,30.5-6.8,41.6-19.2
			c10.7-12,16.2-27.3,14.6-40.9c-0.1-0.9,0.3-1.7,1-2.2c1.3-0.8,3.2-2.3,5.1-4.2c-1.9,0.4-3.8,0.8-5.1,0.7c-1.1,0-2.1-0.8-2.3-1.9
			c-0.2-1.1,0.4-2.2,1.4-2.6c1.3-0.5,3.1-2.1,4.6-4.1c-2.6,1-5.5,1.9-7.6,2.2c-0.7,0.1-1.4-0.1-1.9-0.6c-7.4-6.9-15.7-7.7-24.7-2.4
			c-8.1,4.8-8.3,15.8-7.5,19.3c0.2,0.7,0,1.5-0.5,2c-0.5,0.6-1.2,1-1.9,0.8c-20.8-1.1-34.4-10.9-42.5-20c-1.7,4.3-1.3,8.2-0.6,10.9
			c1.4,5.3,4.8,9.3,7.4,10.9c0.8,0.5,1.3,1.4,1.1,2.4s-0.9,1.7-1.8,1.9c-2.7,0.5-5.5,0.2-8.2-0.9c2.4,9.7,12.5,14.3,15.4,14.6
			c0.9,0.1,1.7,0.7,2,1.6c0.3,0.9,0,1.9-0.7,2.5c-2,1.7-5,2.6-8.5,2.4c3.9,5.2,9.9,8.2,17.2,8.3c1,0,1.8,0.6,2.1,1.5
			c0.3,0.9,0.1,1.9-0.6,2.5C83.5,80.5,75.2,84,66.5,85z"/>
	</g>
</g>
</svg>
